<svg width="295" height="143" viewBox="0 0 295 143" fill="none" xmlns="http://www.w3.org/2000/svg">
<g clip-path="url(#clip0_1_2)">
<rect width="295" height="143" rx="10" fill="#355C7D"/>
<path d="M69 71H69.5V73.5V74" stroke="black" stroke-opacity="0.18" stroke-width="0.5"/>
<path d="M42 71H41.5V73.5V74" stroke="black" stroke-opacity="0.18" stroke-width="0.5"/>
<path d="M69 70V71V72" stroke="black" stroke-opacity="0.18" stroke-width="0.5"/>
<path d="M42 70V71V72" stroke="black" stroke-opacity="0.18" stroke-width="0.5"/>
<path d="M134.558 100.273V109H132.964L129.168 103.507H129.104V109H127.259V100.273H128.878L132.645 105.761H132.722V100.273H134.558ZM139.006 109.128C138.344 109.128 137.772 108.987 137.289 108.706C136.809 108.422 136.438 108.027 136.176 107.521C135.915 107.013 135.784 106.423 135.784 105.753C135.784 105.077 135.915 104.486 136.176 103.98C136.438 103.472 136.809 103.077 137.289 102.795C137.772 102.511 138.344 102.369 139.006 102.369C139.668 102.369 140.239 102.511 140.719 102.795C141.202 103.077 141.574 103.472 141.836 103.98C142.097 104.486 142.228 105.077 142.228 105.753C142.228 106.423 142.097 107.013 141.836 107.521C141.574 108.027 141.202 108.422 140.719 108.706C140.239 108.987 139.668 109.128 139.006 109.128ZM139.015 107.722C139.316 107.722 139.567 107.636 139.769 107.466C139.971 107.293 140.123 107.057 140.225 106.759C140.33 106.46 140.382 106.121 140.382 105.74C140.382 105.359 140.33 105.02 140.225 104.722C140.123 104.423 139.971 104.187 139.769 104.014C139.567 103.841 139.316 103.754 139.015 103.754C138.711 103.754 138.455 103.841 138.248 104.014C138.043 104.187 137.888 104.423 137.783 104.722C137.681 105.02 137.63 105.359 137.63 105.74C137.63 106.121 137.681 106.46 137.783 106.759C137.888 107.057 138.043 107.293 138.248 107.466C138.455 107.636 138.711 107.722 139.015 107.722ZM143.408 109V102.455H145.168V103.597H145.236C145.355 103.19 145.556 102.884 145.837 102.676C146.118 102.466 146.442 102.361 146.809 102.361C146.9 102.361 146.998 102.366 147.103 102.378C147.208 102.389 147.3 102.405 147.38 102.425V104.036C147.294 104.01 147.176 103.987 147.026 103.967C146.875 103.947 146.738 103.938 146.613 103.938C146.346 103.938 146.107 103.996 145.897 104.112C145.689 104.226 145.525 104.385 145.402 104.589C145.283 104.794 145.223 105.03 145.223 105.297V109H143.408ZM152.166 102.455V103.818H148.126V102.455H152.166ZM149.051 109V101.982C149.051 101.507 149.143 101.114 149.328 100.801C149.516 100.489 149.771 100.254 150.095 100.098C150.419 99.9418 150.787 99.8636 151.199 99.8636C151.477 99.8636 151.732 99.8849 151.962 99.9276C152.195 99.9702 152.368 100.009 152.482 100.043L152.158 101.406C152.087 101.384 151.999 101.362 151.893 101.342C151.791 101.322 151.686 101.312 151.578 101.312C151.311 101.312 151.125 101.375 151.02 101.5C150.915 101.622 150.862 101.794 150.862 102.016V109H149.051ZM155.998 109.128C155.336 109.128 154.764 108.987 154.281 108.706C153.801 108.422 153.43 108.027 153.169 107.521C152.907 107.013 152.777 106.423 152.777 105.753C152.777 105.077 152.907 104.486 153.169 103.98C153.43 103.472 153.801 103.077 154.281 102.795C154.764 102.511 155.336 102.369 155.998 102.369C156.66 102.369 157.231 102.511 157.711 102.795C158.194 103.077 158.566 103.472 158.828 103.98C159.089 104.486 159.22 105.077 159.22 105.753C159.22 106.423 159.089 107.013 158.828 107.521C158.566 108.027 158.194 108.422 157.711 108.706C157.231 108.987 156.66 109.128 155.998 109.128ZM156.007 107.722C156.308 107.722 156.559 107.636 156.761 107.466C156.963 107.293 157.115 107.057 157.217 106.759C157.322 106.46 157.375 106.121 157.375 105.74C157.375 105.359 157.322 105.02 157.217 104.722C157.115 104.423 156.963 104.187 156.761 104.014C156.559 103.841 156.308 103.754 156.007 103.754C155.703 103.754 155.447 103.841 155.24 104.014C155.035 104.187 154.88 104.423 154.775 104.722C154.673 105.02 154.622 105.359 154.622 105.74C154.622 106.121 154.673 106.46 154.775 106.759C154.88 107.057 155.035 107.293 155.24 107.466C155.447 107.636 155.703 107.722 156.007 107.722ZM162.216 100.273V109H160.4V100.273H162.216ZM165.315 107.116L165.319 104.939H165.583L167.68 102.455H169.763L166.947 105.744H166.516L165.315 107.116ZM163.67 109V100.273H165.485V109H163.67ZM167.761 109L165.835 106.149L167.045 104.866L169.887 109H167.761ZM179.252 103.094C179.193 102.886 179.109 102.703 179.001 102.544C178.893 102.382 178.761 102.246 178.605 102.135C178.451 102.021 178.275 101.935 178.076 101.875C177.88 101.815 177.663 101.786 177.424 101.786C176.978 101.786 176.586 101.896 176.248 102.118C175.913 102.339 175.652 102.662 175.464 103.085C175.277 103.506 175.183 104.02 175.183 104.628C175.183 105.236 175.275 105.753 175.46 106.179C175.645 106.605 175.906 106.93 176.244 107.155C176.582 107.376 176.981 107.487 177.441 107.487C177.859 107.487 178.216 107.413 178.511 107.266C178.809 107.115 179.037 106.903 179.193 106.631C179.352 106.358 179.431 106.036 179.431 105.663L179.806 105.719H177.556V104.33H181.208V105.429C181.208 106.196 181.047 106.855 180.723 107.406C180.399 107.955 179.953 108.378 179.385 108.676C178.816 108.972 178.166 109.119 177.433 109.119C176.615 109.119 175.896 108.939 175.277 108.578C174.657 108.214 174.174 107.699 173.828 107.031C173.484 106.361 173.312 105.565 173.312 104.645C173.312 103.937 173.414 103.307 173.619 102.753C173.826 102.196 174.116 101.724 174.488 101.338C174.86 100.952 175.294 100.658 175.788 100.456C176.282 100.254 176.818 100.153 177.395 100.153C177.889 100.153 178.349 100.226 178.775 100.371C179.201 100.513 179.579 100.714 179.909 100.976C180.241 101.237 180.512 101.548 180.723 101.909C180.933 102.267 181.068 102.662 181.127 103.094H179.252ZM184.376 100.273V109H182.56V100.273H184.376ZM187.696 109.124C187.279 109.124 186.907 109.051 186.58 108.906C186.253 108.759 185.995 108.541 185.804 108.254C185.617 107.964 185.523 107.604 185.523 107.172C185.523 106.808 185.59 106.503 185.723 106.256C185.857 106.009 186.039 105.81 186.269 105.659C186.499 105.509 186.76 105.395 187.053 105.318C187.348 105.241 187.658 105.188 187.982 105.156C188.363 105.116 188.669 105.08 188.902 105.045C189.135 105.009 189.304 104.955 189.409 104.884C189.515 104.812 189.567 104.707 189.567 104.568V104.543C189.567 104.273 189.482 104.064 189.311 103.916C189.144 103.768 188.905 103.695 188.596 103.695C188.269 103.695 188.009 103.767 187.816 103.912C187.623 104.054 187.495 104.233 187.432 104.449L185.753 104.312C185.838 103.915 186.006 103.571 186.256 103.281C186.506 102.989 186.828 102.764 187.223 102.608C187.621 102.449 188.081 102.369 188.604 102.369C188.968 102.369 189.316 102.412 189.648 102.497C189.983 102.582 190.28 102.714 190.539 102.893C190.8 103.072 191.006 103.303 191.157 103.584C191.307 103.862 191.382 104.196 191.382 104.585V109H189.661V108.092H189.61C189.505 108.297 189.364 108.477 189.188 108.634C189.012 108.787 188.8 108.908 188.553 108.996C188.306 109.081 188.02 109.124 187.696 109.124ZM188.216 107.871C188.483 107.871 188.719 107.818 188.924 107.713C189.128 107.605 189.289 107.46 189.405 107.278C189.522 107.097 189.58 106.891 189.58 106.661V105.966C189.523 106.003 189.445 106.037 189.346 106.068C189.249 106.097 189.14 106.124 189.017 106.149C188.895 106.172 188.773 106.193 188.651 106.213C188.529 106.23 188.418 106.246 188.319 106.26C188.105 106.291 187.919 106.341 187.76 106.409C187.601 106.477 187.478 106.57 187.39 106.686C187.301 106.8 187.257 106.942 187.257 107.112C187.257 107.359 187.347 107.548 187.526 107.679C187.708 107.807 187.938 107.871 188.216 107.871ZM192.757 109V107.918L195.961 103.95V103.903H192.868V102.455H198.147V103.635L195.139 107.504V107.551H198.258V109H192.757ZM199.646 109V102.455H201.462V109H199.646ZM200.558 101.611C200.288 101.611 200.057 101.521 199.864 101.342C199.673 101.161 199.578 100.943 199.578 100.69C199.578 100.44 199.673 100.226 199.864 100.047C200.057 99.8651 200.288 99.7741 200.558 99.7741C200.828 99.7741 201.058 99.8651 201.249 100.047C201.442 100.226 201.538 100.44 201.538 100.69C201.538 100.943 201.442 101.161 201.249 101.342C201.058 101.521 200.828 101.611 200.558 101.611ZM204.731 105.216V109H202.916V102.455H204.646V103.609H204.723C204.868 103.229 205.11 102.928 205.451 102.706C205.792 102.482 206.206 102.369 206.691 102.369C207.146 102.369 207.542 102.469 207.88 102.668C208.218 102.866 208.481 103.151 208.669 103.52C208.856 103.886 208.95 104.324 208.95 104.832V109H207.135V105.156C207.137 104.756 207.035 104.443 206.828 104.219C206.62 103.991 206.335 103.878 205.971 103.878C205.727 103.878 205.511 103.93 205.324 104.036C205.139 104.141 204.994 104.294 204.889 104.496C204.787 104.695 204.734 104.935 204.731 105.216ZM213.33 111.591C212.741 111.591 212.237 111.51 211.817 111.348C211.399 111.189 211.067 110.972 210.82 110.696C210.572 110.42 210.412 110.111 210.338 109.767L212.017 109.541C212.068 109.672 212.149 109.794 212.26 109.908C212.371 110.021 212.517 110.112 212.699 110.18C212.884 110.251 213.108 110.287 213.372 110.287C213.767 110.287 214.092 110.19 214.348 109.997C214.607 109.807 214.736 109.487 214.736 109.038V107.841H214.659C214.58 108.023 214.46 108.195 214.301 108.357C214.142 108.518 213.938 108.651 213.688 108.753C213.438 108.855 213.139 108.906 212.793 108.906C212.301 108.906 211.854 108.793 211.45 108.565C211.05 108.335 210.73 107.984 210.491 107.513C210.256 107.038 210.138 106.439 210.138 105.714C210.138 104.973 210.259 104.354 210.5 103.857C210.741 103.359 211.063 102.987 211.463 102.74C211.866 102.493 212.308 102.369 212.788 102.369C213.155 102.369 213.462 102.432 213.709 102.557C213.956 102.679 214.155 102.832 214.305 103.017C214.459 103.199 214.577 103.378 214.659 103.554H214.727V102.455H216.53V109.064C216.53 109.621 216.393 110.087 216.121 110.462C215.848 110.837 215.47 111.118 214.987 111.305C214.507 111.496 213.955 111.591 213.33 111.591ZM213.368 107.543C213.661 107.543 213.908 107.47 214.109 107.325C214.314 107.178 214.47 106.967 214.578 106.695C214.689 106.419 214.744 106.089 214.744 105.706C214.744 105.322 214.69 104.99 214.582 104.709C214.474 104.425 214.318 104.205 214.114 104.048C213.909 103.892 213.661 103.814 213.368 103.814C213.07 103.814 212.818 103.895 212.614 104.057C212.409 104.216 212.254 104.437 212.149 104.722C212.044 105.006 211.991 105.334 211.991 105.706C211.991 106.084 212.044 106.411 212.149 106.686C212.257 106.959 212.412 107.17 212.614 107.321C212.818 107.469 213.07 107.543 213.368 107.543ZM225.52 102.783C225.486 102.439 225.34 102.172 225.081 101.982C224.823 101.791 224.472 101.696 224.029 101.696C223.728 101.696 223.473 101.739 223.266 101.824C223.059 101.906 222.9 102.021 222.789 102.169C222.681 102.317 222.627 102.484 222.627 102.672C222.621 102.828 222.654 102.964 222.725 103.081C222.799 103.197 222.9 103.298 223.027 103.384C223.155 103.466 223.303 103.538 223.471 103.601C223.638 103.661 223.817 103.712 224.007 103.754L224.792 103.942C225.172 104.027 225.522 104.141 225.84 104.283C226.158 104.425 226.434 104.599 226.667 104.807C226.9 105.014 227.08 105.259 227.208 105.54C227.338 105.821 227.405 106.143 227.408 106.507C227.405 107.041 227.269 107.504 226.999 107.896C226.732 108.286 226.346 108.588 225.84 108.804C225.337 109.017 224.73 109.124 224.02 109.124C223.316 109.124 222.702 109.016 222.179 108.8C221.659 108.584 221.253 108.264 220.961 107.841C220.671 107.415 220.519 106.888 220.505 106.26H222.29C222.31 106.553 222.394 106.797 222.542 106.993C222.692 107.186 222.892 107.332 223.142 107.432C223.395 107.528 223.681 107.577 223.999 107.577C224.311 107.577 224.583 107.531 224.813 107.44C225.046 107.349 225.226 107.223 225.354 107.061C225.482 106.899 225.546 106.713 225.546 106.503C225.546 106.307 225.488 106.142 225.371 106.009C225.257 105.875 225.09 105.761 224.868 105.668C224.65 105.574 224.381 105.489 224.063 105.412L223.113 105.173C222.377 104.994 221.796 104.714 221.37 104.334C220.944 103.953 220.732 103.44 220.735 102.795C220.732 102.267 220.873 101.805 221.157 101.411C221.444 101.016 221.837 100.707 222.337 100.486C222.837 100.264 223.405 100.153 224.042 100.153C224.689 100.153 225.255 100.264 225.738 100.486C226.223 100.707 226.601 101.016 226.871 101.411C227.141 101.805 227.28 102.263 227.289 102.783H225.52ZM231.572 109.128C230.911 109.128 230.338 108.987 229.855 108.706C229.375 108.422 229.004 108.027 228.743 107.521C228.482 107.013 228.351 106.423 228.351 105.753C228.351 105.077 228.482 104.486 228.743 103.98C229.004 103.472 229.375 103.077 229.855 102.795C230.338 102.511 230.911 102.369 231.572 102.369C232.234 102.369 232.805 102.511 233.286 102.795C233.768 103.077 234.141 103.472 234.402 103.98C234.663 104.486 234.794 105.077 234.794 105.753C234.794 106.423 234.663 107.013 234.402 107.521C234.141 108.027 233.768 108.422 233.286 108.706C232.805 108.987 232.234 109.128 231.572 109.128ZM231.581 107.722C231.882 107.722 232.134 107.636 232.335 107.466C232.537 107.293 232.689 107.057 232.791 106.759C232.896 106.46 232.949 106.121 232.949 105.74C232.949 105.359 232.896 105.02 232.791 104.722C232.689 104.423 232.537 104.187 232.335 104.014C232.134 103.841 231.882 103.754 231.581 103.754C231.277 103.754 231.021 103.841 230.814 104.014C230.609 104.187 230.455 104.423 230.349 104.722C230.247 105.02 230.196 105.359 230.196 105.74C230.196 106.121 230.247 106.46 230.349 106.759C230.455 107.057 230.609 107.293 230.814 107.466C231.021 107.636 231.277 107.722 231.581 107.722ZM237.79 100.273V109H235.974V100.273H237.79ZM243.441 106.213V102.455H245.257V109H243.514V107.811H243.446C243.298 108.195 243.052 108.503 242.708 108.736C242.368 108.969 241.951 109.085 241.46 109.085C241.022 109.085 240.637 108.986 240.305 108.787C239.973 108.588 239.713 108.305 239.525 107.939C239.341 107.572 239.247 107.134 239.244 106.622V102.455H241.059V106.298C241.062 106.685 241.166 106.99 241.37 107.214C241.575 107.439 241.849 107.551 242.193 107.551C242.412 107.551 242.616 107.501 242.806 107.402C242.997 107.3 243.15 107.149 243.267 106.95C243.386 106.751 243.444 106.506 243.441 106.213ZM250.19 102.455V103.818H246.249V102.455H250.19ZM247.143 100.886H248.959V106.989C248.959 107.156 248.984 107.287 249.036 107.381C249.087 107.472 249.158 107.536 249.249 107.572C249.342 107.609 249.45 107.628 249.572 107.628C249.658 107.628 249.743 107.621 249.828 107.607C249.913 107.589 249.979 107.577 250.024 107.568L250.31 108.919C250.219 108.947 250.091 108.98 249.926 109.017C249.761 109.057 249.561 109.081 249.325 109.089C248.888 109.107 248.504 109.048 248.175 108.915C247.848 108.781 247.594 108.574 247.412 108.293C247.23 108.011 247.141 107.656 247.143 107.227V100.886ZM251.373 109V102.455H253.188V109H251.373ZM252.285 101.611C252.015 101.611 251.783 101.521 251.59 101.342C251.4 101.161 251.305 100.943 251.305 100.69C251.305 100.44 251.4 100.226 251.59 100.047C251.783 99.8651 252.015 99.7741 252.285 99.7741C252.555 99.7741 252.785 99.8651 252.975 100.047C253.168 100.226 253.265 100.44 253.265 100.69C253.265 100.943 253.168 101.161 252.975 101.342C252.785 101.521 252.555 101.611 252.285 101.611ZM257.6 109.128C256.938 109.128 256.365 108.987 255.882 108.706C255.402 108.422 255.032 108.027 254.77 107.521C254.509 107.013 254.378 106.423 254.378 105.753C254.378 105.077 254.509 104.486 254.77 103.98C255.032 103.472 255.402 103.077 255.882 102.795C256.365 102.511 256.938 102.369 257.6 102.369C258.262 102.369 258.833 102.511 259.313 102.795C259.796 103.077 260.168 103.472 260.429 103.98C260.691 104.486 260.821 105.077 260.821 105.753C260.821 106.423 260.691 107.013 260.429 107.521C260.168 108.027 259.796 108.422 259.313 108.706C258.833 108.987 258.262 109.128 257.6 109.128ZM257.608 107.722C257.909 107.722 258.161 107.636 258.363 107.466C258.564 107.293 258.716 107.057 258.819 106.759C258.924 106.46 258.976 106.121 258.976 105.74C258.976 105.359 258.924 105.02 258.819 104.722C258.716 104.423 258.564 104.187 258.363 104.014C258.161 103.841 257.909 103.754 257.608 103.754C257.304 103.754 257.049 103.841 256.841 104.014C256.637 104.187 256.482 104.423 256.377 104.722C256.275 105.02 256.223 105.359 256.223 105.74C256.223 106.121 256.275 106.46 256.377 106.759C256.482 107.057 256.637 107.293 256.841 107.466C257.049 107.636 257.304 107.722 257.608 107.722ZM263.817 105.216V109H262.002V102.455H263.732V103.609H263.809C263.953 103.229 264.196 102.928 264.537 102.706C264.878 102.482 265.292 102.369 265.777 102.369C266.232 102.369 266.628 102.469 266.966 102.668C267.304 102.866 267.567 103.151 267.755 103.52C267.942 103.886 268.036 104.324 268.036 104.832V109H266.221V105.156C266.223 104.756 266.121 104.443 265.914 104.219C265.706 103.991 265.421 103.878 265.057 103.878C264.813 103.878 264.597 103.93 264.409 104.036C264.225 104.141 264.08 104.294 263.975 104.496C263.873 104.695 263.82 104.935 263.817 105.216ZM274.913 104.321L273.251 104.423C273.222 104.281 273.161 104.153 273.067 104.04C272.974 103.923 272.85 103.831 272.697 103.763C272.546 103.692 272.366 103.656 272.156 103.656C271.874 103.656 271.637 103.716 271.444 103.835C271.251 103.952 271.154 104.108 271.154 104.304C271.154 104.46 271.217 104.592 271.342 104.7C271.467 104.808 271.681 104.895 271.985 104.96L273.17 105.199C273.806 105.33 274.281 105.54 274.593 105.83C274.906 106.119 275.062 106.5 275.062 106.972C275.062 107.401 274.935 107.777 274.683 108.101C274.433 108.425 274.089 108.678 273.651 108.859C273.217 109.038 272.715 109.128 272.147 109.128C271.281 109.128 270.59 108.947 270.076 108.587C269.565 108.223 269.265 107.729 269.177 107.104L270.962 107.01C271.016 107.274 271.147 107.476 271.354 107.615C271.562 107.751 271.827 107.82 272.151 107.82C272.469 107.82 272.725 107.759 272.918 107.636C273.114 107.511 273.214 107.351 273.217 107.155C273.214 106.99 273.144 106.855 273.008 106.75C272.871 106.642 272.661 106.56 272.377 106.503L271.244 106.277C270.604 106.149 270.129 105.928 269.816 105.612C269.506 105.297 269.352 104.895 269.352 104.406C269.352 103.986 269.465 103.624 269.692 103.32C269.923 103.016 270.245 102.781 270.66 102.616C271.077 102.452 271.566 102.369 272.126 102.369C272.952 102.369 273.603 102.544 274.077 102.893C274.555 103.243 274.833 103.719 274.913 104.321Z" fill="white"/>
<path d="M161.477 43.4545V90H152.977L132.727 60.7045H132.386V90H122.545V43.4545H131.182L151.273 72.7273H151.682V43.4545H161.477ZM213.272 58.5C212.953 57.3939 212.506 56.4167 211.931 55.5682C211.355 54.7045 210.65 53.9773 209.817 53.3864C208.999 52.7803 208.059 52.3182 206.999 52C205.953 51.6818 204.794 51.5227 203.522 51.5227C201.143 51.5227 199.052 52.1136 197.249 53.2955C195.461 54.4773 194.067 56.197 193.067 58.4545C192.067 60.697 191.567 63.4394 191.567 66.6818C191.567 69.9242 192.059 72.6818 193.044 74.9545C194.029 77.2273 195.423 78.9621 197.226 80.1591C199.029 81.3409 201.158 81.9318 203.612 81.9318C205.84 81.9318 207.741 81.5379 209.317 80.75C210.908 79.947 212.12 78.8182 212.953 77.3636C213.802 75.9091 214.226 74.1894 214.226 72.2045L216.226 72.5H204.226V65.0909H223.703V70.9545C223.703 75.0455 222.84 78.5606 221.112 81.5C219.385 84.4242 217.006 86.6818 213.976 88.2727C210.946 89.8485 207.476 90.6364 203.567 90.6364C199.203 90.6364 195.37 89.6742 192.067 87.75C188.764 85.8106 186.188 83.0606 184.34 79.5C182.506 75.9242 181.59 71.6818 181.59 66.7727C181.59 63 182.135 59.6364 183.226 56.6818C184.332 53.7121 185.878 51.197 187.862 49.1364C189.847 47.0758 192.158 45.5076 194.794 44.4318C197.431 43.3561 200.287 42.8182 203.362 42.8182C205.999 42.8182 208.453 43.2045 210.726 43.9773C212.999 44.7348 215.014 45.8106 216.772 47.2045C218.544 48.5985 219.991 50.2576 221.112 52.1818C222.234 54.0909 222.953 56.197 223.272 58.5H213.272ZM269.145 56.8409C268.964 55.0076 268.183 53.5833 266.805 52.5682C265.426 51.553 263.555 51.0455 261.191 51.0455C259.585 51.0455 258.229 51.2727 257.123 51.7273C256.017 52.1667 255.168 52.7803 254.577 53.5682C254.002 54.3561 253.714 55.25 253.714 56.25C253.683 57.0833 253.858 57.8106 254.236 58.4318C254.63 59.053 255.168 59.5909 255.85 60.0455C256.532 60.4848 257.32 60.8712 258.214 61.2045C259.108 61.5227 260.062 61.7955 261.077 62.0227L265.259 63.0227C267.289 63.4773 269.153 64.0833 270.85 64.8409C272.547 65.5985 274.017 66.5303 275.259 67.6364C276.502 68.7424 277.464 70.0455 278.145 71.5455C278.842 73.0455 279.198 74.7652 279.214 76.7045C279.198 79.553 278.471 82.0227 277.032 84.1136C275.608 86.1894 273.547 87.803 270.85 88.9545C268.168 90.0909 264.933 90.6591 261.145 90.6591C257.388 90.6591 254.115 90.0833 251.327 88.9318C248.555 87.7803 246.388 86.0758 244.827 83.8182C243.282 81.5455 242.471 78.7348 242.395 75.3864H251.918C252.024 76.947 252.471 78.25 253.259 79.2955C254.062 80.3258 255.13 81.1061 256.464 81.6364C257.812 82.1515 259.335 82.4091 261.032 82.4091C262.698 82.4091 264.145 82.1667 265.373 81.6818C266.615 81.197 267.577 80.5227 268.259 79.6591C268.941 78.7955 269.282 77.803 269.282 76.6818C269.282 75.6364 268.971 74.7576 268.35 74.0455C267.744 73.3333 266.85 72.7273 265.668 72.2273C264.502 71.7273 263.07 71.2727 261.373 70.8636L256.305 69.5909C252.38 68.6364 249.282 67.1439 247.009 65.1136C244.736 63.0833 243.608 60.3485 243.623 56.9091C243.608 54.0909 244.358 51.6288 245.873 49.5227C247.403 47.4167 249.502 45.7727 252.168 44.5909C254.835 43.4091 257.865 42.8182 261.259 42.8182C264.714 42.8182 267.729 43.4091 270.305 44.5909C272.895 45.7727 274.911 47.4167 276.35 49.5227C277.789 51.6288 278.532 54.0682 278.577 56.8409H269.145Z" fill="white"/>
<path fill-rule="evenodd" clip-rule="evenodd" d="M17 114H107V107.039H102.028V25H21.4751V107.039H17V114ZM27.9392 32.4581H94.0718V107.039H80.1492H40.3702H27.9392V32.4581Z" fill="#F5F5F5"/>
<path fill-rule="evenodd" clip-rule="evenodd" d="M94.0718 107.039V32.4581L71.6961 43.8939V103.559L80.1492 107.039H94.0718ZM88.105 43.3435L78.7045 47.3743V69.7486H88.105V43.3435ZM78.7045 75.7151H88.105V102.067L78.7045 98.5866V75.7151Z" fill="#F5F5F5"/>
<path fill-rule="evenodd" clip-rule="evenodd" d="M27.9392 107.039V32.4581L50.3149 43.8939V103.559L40.3702 107.039H27.9392ZM43.8508 47.3743V69.7486H34.9006V43.8939L43.8508 47.3743ZM43.8508 75.7151V98.5866L34.9006 102.067V75.7151H43.8508Z" fill="#F5F5F5"/>
<path d="M27.9392 32.4581H94.0718M27.9392 32.4581V107.039H40.3702M27.9392 32.4581L50.3149 43.8939V103.559L40.3702 107.039M94.0718 32.4581V107.039H80.1492M94.0718 32.4581L71.6961 43.8939V103.559L80.1492 107.039M80.1492 107.039H40.3702M47.8287 70.743V71.7374M47.8287 72.7318V71.7374M47.8287 71.7374H46.8343V74.2235M73.6851 71.7374V70.743M73.6851 71.7374V72.7318M73.6851 71.7374H74.6796V74.2235M17 114H107V107.039H102.028V25H21.4751V107.039H17V114ZM78.7045 47.3743L88.105 43.3435V69.7486H78.7045V47.3743ZM88.105 75.7151H78.7045V98.5866L88.105 102.067V75.7151ZM43.8508 47.3743V69.7486H34.9006V43.8939L43.8508 47.3743ZM43.8508 75.7151V98.5866L34.9006 102.067V75.7151H43.8508Z" stroke="black" stroke-opacity="0.18" stroke-width="0.5" stroke-linejoin="round"/>
</g>
<defs>
<clipPath id="clip0_1_2">
<rect width="295" height="143" fill="white"/>
</clipPath>
</defs>
</svg>
